<svg xmlns="http://www.w3.org/2000/svg" viewBox="0 0 24 24" width="24" height="24">
  <!-- Maple leaf (pixel style) -->
  <g fill="#22c55e">
    <rect x="10" y="0" width="4" height="4"/>
    <rect x="8" y="4" width="8" height="4"/>
    <rect x="6" y="8" width="4" height="4"/>
    <rect x="10" y="8" width="4" height="4"/>
    <rect x="14" y="8" width="4" height="4"/>
    <rect x="4" y="12" width="4" height="4"/>
    <rect x="10" y="12" width="4" height="4"/>
    <rect x="16" y="12" width="4" height="4"/>
    <rect x="6" y="16" width="4" height="4"/>
    <rect x="14" y="16" width="4" height="4"/>
    <rect x="8" y="20" width="3" height="4"/>
    <rect x="13" y="20" width="3" height="4"/>
  </g>
  <g fill="#16a34a">
    <rect x="11" y="1" width="2" height="2"/>
    <rect x="9" y="5" width="6" height="2"/>
    <rect x="11" y="9" width="2" height="2"/>
    <rect x="5" y="13" width="2" height="2"/>
    <rect x="17" y="13" width="2" height="2"/>
    <rect x="7" y="17" width="2" height="2"/>
    <rect x="15" y="17" width="2" height="2"/>
  </g>
</svg>
